<svg width="20" height="20" viewBox="0 0 20 20" xmlns="http://www.w3.org/2000/svg">
    <path d="M9.317 0A9.317 9.317 0 0 0 0 9.317a9.317 9.317 0 0 0 18.634 0A9.317 9.317 0 0 0 9.317 0zM10.4 14.492c0 .19-.154.344-.343.344H8a.345.345 0 0 1-.344-.344v-2.057c0-.19.154-.344.343-.344h2.056c.19 0 .343.157.343.346v2.057zM11.19 10c-.507.29-.824.882-.824 1.13 0 .19-.145.413-.343.413H7.965c-.19 0-.31-.292-.31-.48v-.387c0-1.037 1.03-1.93 1.785-2.272.66-.3.935-.583.935-1.132 0-.48-.626-.91-1.322-.91-.385 0-.737.12-.925.25-.206.145-.412.35-.918.986a.354.354 0 0 1-.266.137.395.395 0 0 1-.214-.068L5.323 6.594a.337.337 0 0 1-.085-.454c.926-1.535 2.23-2.28 3.98-2.28 1.834 0 3.892 1.465 3.892 3.43 0 1.628-1.106 2.254-1.92 2.71z" fill="#FFF" fill-rule="evenodd"/>
</svg>
