<svg width="20" height="20" viewBox="0 0 20 20" xmlns="http://www.w3.org/2000/svg">
    <path d="M9.317 0A9.317 9.317 0 0 0 0 9.318a9.317 9.317 0 0 0 18.634 0A9.317 9.317 0 0 0 9.317 0zm4.193 7.364c.007.094.007.187.007.28 0 2.862-2.177 6.157-6.156 6.157a6.1 6.1 0 0 1-3.32-.97c.173.02.34.028.522.028a4.33 4.33 0 0 0 2.686-.925 2.167 2.167 0 0 1-2.022-1.5 2.278 2.278 0 0 0 .978-.04A2.163 2.163 0 0 1 4.47 8.27v-.03c.287.163.622.263.977.276a2.16 2.16 0 0 1-.964-1.8c0-.404.107-.772.295-1.094a6.137 6.137 0 0 0 4.46 2.264 2.163 2.163 0 0 1 3.688-1.974c.49-.092.96-.273 1.374-.52-.16.5-.502.923-.95 1.19a4.293 4.293 0 0 0 1.245-.334c-.295.43-.663.81-1.085 1.12z" fill="#FFF" fill-rule="evenodd"/>
</svg>
