<svg width="20" height="20" viewBox="0 0 20 20" xmlns="http://www.w3.org/2000/svg">
    <path d="M9.5 19c5.247 0 9.5-4.253 9.5-9.5S14.747 0 9.5 0 0 4.253 0 9.5 4.253 19 9.5 19zm6-11.174c-.2.22-.43.415-.67.582-1.118.757-2.243 1.52-3.334 2.31-.563.416-1.26.925-1.99.925H9.494c-.73 0-1.426-.51-1.99-.924-1.09-.798-2.215-1.555-3.327-2.312-.247-.167-.475-.36-.676-.582v5.317c0 .59.482 1.07 1.07 1.07h9.86c.588 0 1.07-.48 1.07-1.07V7.826zm0-1.97c0-.588-.49-1.07-1.07-1.07H4.57c-.715 0-1.07.562-1.07 1.218 0 .61.676 1.367 1.152 1.688 1.038.723 2.09 1.446 3.127 2.176.434.302 1.17.918 1.713.918h.014c.542 0 1.28-.616 1.714-.918 1.04-.73 2.09-1.453 3.135-2.176.59-.41 1.145-1.085 1.145-1.835z" fill="#FFF" fill-rule="evenodd"/>
</svg>
