<svg width="20" height="20" viewBox="0 0 20 20" xmlns="http://www.w3.org/2000/svg">
    <path d="M9.434 0C4.226 0 0 4.225 0 9.434c0 4.165 2.702 7.702 6.45 8.955.057.01.11.014.16.014.357 0 .49-.254.49-.47 0-.22-.012-.97-.012-1.755 0 0-.424.09-.968.09-.81 0-1.884-.203-2.215-1.21 0 0-.428-1.094-1.042-1.376 0 0-.844-.578.034-.578h.026s.933.074 1.45.97c.46.81 1.092 1.038 1.655 1.038.444 0 .845-.142 1.085-.25.085-.614.33-1.02.603-1.265-2.102-.235-4.302-1.046-4.302-4.658 0-1.03.37-1.88.97-2.53-.1-.246-.417-1.203.086-2.506.073-.023.155-.033.243-.033.872 0 2.364 1.003 2.364 1.003.747-.21 1.56-.32 2.357-.32.8 0 1.61.11 2.36.32 0 0 1.488-1.003 2.35-1.003.087 0 .168.01.24.033.516 1.303.197 2.26.1 2.505.6.652.97 1.5.97 2.532 0 3.624-2.21 4.423-4.312 4.657.344.292.64.857.64 1.743v2.592c0 .216.12.47.477.47.047 0 .1-.005.16-.016 3.746-1.254 6.448-4.79 6.448-8.956C18.868 4.224 14.642 0 9.434 0" fill="#FFF" fill-rule="evenodd"/>
</svg>
